<?xml version="1.0" standalone="no"?>
<!-- Generator: Gravit.io -->
<svg xmlns="http://www.w3.org/2000/svg" xmlns:xlink="http://www.w3.org/1999/xlink" style="isolation:isolate" viewBox="0 0 800 800" width="800" height="800">
<path id="XMLID_1_" class="st0" d="M384.2,499.9c-61.7,60.7-187.4,70-244.7,0c-35.2-43-45-116.5-14.9-154.5
	c22.9-28.9,58.8-24.3,70.6-56.2c8.4-22.5-6.6-32.7-9.4-71.1c-0.7-10.2-5.2-88,43-117.9c37.4-23.2,84.1-3.4,91.1-0.4
	c32.3,13.7,71.9,48,67.7,80.9c-4.3,32.8-48.6,35.1-65.1,85.5c-4.2,12.9-10.2,31-2.6,47.7c17.1,37.4,80,19.1,103.4,52.3
	C445.9,398.3,421.1,463.6,384.2,499.9z"/>
</svg>